<?xml version="1.0" standalone="no"?>
<!DOCTYPE svg PUBLIC "-//W3C//DTD SVG 20010904//EN"
 "http://www.w3.org/TR/2001/REC-SVG-20010904/DTD/svg10.dtd">
<svg version="1.0" xmlns="http://www.w3.org/2000/svg"
 width="399.000000pt" height="399.000000pt" viewBox="0 0 399.000000 399.000000"
 preserveAspectRatio="xMidYMid meet">
<metadata>
Created by potrace 1.14, written by Peter Selinger 2001-2017
</metadata>
<g transform="translate(0.000000,399.000000) scale(0.100000,-0.100000)"
fill="#000000" stroke="none">
<path d="M1780 3979 c-348 -36 -693 -171 -978 -383 -398 -296 -668 -720 -773
-1211 -22 -101 -24 -134 -24 -390 0 -256 2 -289 23 -390 133 -621 528 -1131
1087 -1405 277 -135 560 -200 877 -200 537 0 1032 204 1408 581 659 659 778
1667 290 2464 -98 160 -275 362 -426 486 -416 341 -951 502 -1484 448z m540
-48 c564 -100 1045 -424 1350 -911 198 -315 302 -717 287 -1100 -21 -506 -216
-951 -576 -1311 -396 -396 -915 -599 -1471 -576 -505 21 -955 220 -1316 581
-319 320 -502 699 -559 1157 -42 341 13 697 159 1029 182 414 570 802 983 984
216 95 383 138 653 170 87 10 380 -3 490 -23z"/>
<path d="M1941 3280 c-83 -20 -65 22 -500 -1183 -220 -610 -403 -1123 -406
-1141 -5 -26 -1 -39 20 -64 15 -18 31 -30 36 -26 5 3 9 0 9 -5 0 -21 95 -13
126 11 16 12 30 23 32 24 11 7 161 468 155 477 -3 7 -2 9 2 4 8 -7 44 86 135
352 22 63 42 116 45 119 3 3 5 -8 5 -24 0 -16 11 -42 24 -59 l24 -30 323 -3
c225 -2 331 1 350 9 31 12 63 54 54 69 -3 6 0 10 7 10 8 0 59 -133 137 -358
219 -633 198 -581 238 -597 43 -18 103 -19 138 -3 30 14 55 55 55 92 0 24
-774 2155 -811 2232 -34 72 -119 112 -198 94z m80 -30 c66 0 75 -18 265 -540
455 -1252 634 -1752 634 -1772 0 -39 -28 -58 -86 -58 -43 0 -56 4 -71 24 -10
13 -187 496 -393 1074 -206 578 -378 1048 -381 1044 -4 -4 -174 -475 -379
-1047 -204 -572 -379 -1051 -389 -1065 -15 -20 -28 -26 -71 -28 -58 -3 -90 15
-90 51 0 30 809 2269 828 2290 17 19 70 37 90 31 8 -2 27 -4 43 -4z m318
-1356 c12 -15 21 -39 21 -54 0 -15 -9 -39 -21 -54 l-20 -26 -329 0 c-374 0
-360 -3 -360 80 0 83 -14 80 360 80 l329 0 20 -26z"/>
</g>
</svg>
